<svg id="my-svg" width="100%" xmlns="http://www.w3.org/2000/svg" xmlns:xlink="http://www.w3.org/1999/xlink" style="max-width: 1477px; background-color: white;" viewBox="-8 -8 1477 280" role="graphics-document document" aria-roledescription="flowchart-v2"><style>#my-svg{font-family:"trebuchet ms",verdana,arial,sans-serif;font-size:16px;fill:#333;}#my-svg .error-icon{fill:#552222;}#my-svg .error-text{fill:#552222;stroke:#552222;}#my-svg .edge-thickness-normal{stroke-width:2px;}#my-svg .edge-thickness-thick{stroke-width:3.5px;}#my-svg .edge-pattern-solid{stroke-dasharray:0;}#my-svg .edge-pattern-dashed{stroke-dasharray:3;}#my-svg .edge-pattern-dotted{stroke-dasharray:2;}#my-svg .marker{fill:#333333;stroke:#333333;}#my-svg .marker.cross{stroke:#333333;}#my-svg svg{font-family:"trebuchet ms",verdana,arial,sans-serif;font-size:16px;}#my-svg .label{font-family:"trebuchet ms",verdana,arial,sans-serif;color:#333;}#my-svg .cluster-label text{fill:#333;}#my-svg .cluster-label span,#my-svg p{color:#333;}#my-svg .label text,#my-svg span,#my-svg p{fill:#333;color:#333;}#my-svg .node rect,#my-svg .node circle,#my-svg .node ellipse,#my-svg .node polygon,#my-svg .node path{fill:#ECECFF;stroke:#9370DB;stroke-width:1px;}#my-svg .flowchart-label text{text-anchor:middle;}#my-svg .node .katex path{fill:#000;stroke:#000;stroke-width:1px;}#my-svg .node .label{text-align:center;}#my-svg .node.clickable{cursor:pointer;}#my-svg .arrowheadPath{fill:#333333;}#my-svg .edgePath .path{stroke:#333333;stroke-width:2.0px;}#my-svg .flowchart-link{stroke:#333333;fill:none;}#my-svg .edgeLabel{background-color:#e8e8e8;text-align:center;}#my-svg .edgeLabel rect{opacity:0.5;background-color:#e8e8e8;fill:#e8e8e8;}#my-svg .labelBkg{background-color:rgba(232, 232, 232, 0.5);}#my-svg .cluster rect{fill:#ffffde;stroke:#aaaa33;stroke-width:1px;}#my-svg .cluster text{fill:#333;}#my-svg .cluster span,#my-svg p{color:#333;}#my-svg div.mermaidTooltip{position:absolute;text-align:center;max-width:200px;padding:2px;font-family:"trebuchet ms",verdana,arial,sans-serif;font-size:12px;background:hsl(80, 100%, 96.2745098039%);border:1px solid #aaaa33;border-radius:2px;pointer-events:none;z-index:100;}#my-svg .flowchartTitleText{text-anchor:middle;font-size:18px;fill:#333;}#my-svg :root{--mermaid-font-family:"trebuchet ms",verdana,arial,sans-serif;}</style><g><marker id="my-svg_flowchart-pointEnd" class="marker flowchart" viewBox="0 0 10 10" refX="6" refY="5" markerUnits="userSpaceOnUse" markerWidth="12" markerHeight="12" orient="auto"><path d="M 0 0 L 10 5 L 0 10 z" class="arrowMarkerPath" style="stroke-width: 1; stroke-dasharray: 1, 0;"/></marker><marker id="my-svg_flowchart-pointStart" class="marker flowchart" viewBox="0 0 10 10" refX="4.5" refY="5" markerUnits="userSpaceOnUse" markerWidth="12" markerHeight="12" orient="auto"><path d="M 0 5 L 10 10 L 10 0 z" class="arrowMarkerPath" style="stroke-width: 1; stroke-dasharray: 1, 0;"/></marker><marker id="my-svg_flowchart-circleEnd" class="marker flowchart" viewBox="0 0 10 10" refX="11" refY="5" markerUnits="userSpaceOnUse" markerWidth="11" markerHeight="11" orient="auto"><circle cx="5" cy="5" r="5" class="arrowMarkerPath" style="stroke-width: 1; stroke-dasharray: 1, 0;"/></marker><marker id="my-svg_flowchart-circleStart" class="marker flowchart" viewBox="0 0 10 10" refX="-1" refY="5" markerUnits="userSpaceOnUse" markerWidth="11" markerHeight="11" orient="auto"><circle cx="5" cy="5" r="5" class="arrowMarkerPath" style="stroke-width: 1; stroke-dasharray: 1, 0;"/></marker><marker id="my-svg_flowchart-crossEnd" class="marker cross flowchart" viewBox="0 0 11 11" refX="12" refY="5.2" markerUnits="userSpaceOnUse" markerWidth="11" markerHeight="11" orient="auto"><path d="M 1,1 l 9,9 M 10,1 l -9,9" class="arrowMarkerPath" style="stroke-width: 2; stroke-dasharray: 1, 0;"/></marker><marker id="my-svg_flowchart-crossStart" class="marker cross flowchart" viewBox="0 0 11 11" refX="-1" refY="5.2" markerUnits="userSpaceOnUse" markerWidth="11" markerHeight="11" orient="auto"><path d="M 1,1 l 9,9 M 10,1 l -9,9" class="arrowMarkerPath" style="stroke-width: 2; stroke-dasharray: 1, 0;"/></marker><g class="root"><g class="clusters"/><g class="edgePaths"><path d="M120,199.25L124.167,199.25C128.333,199.25,136.667,199.25,144.117,199.25C151.567,199.25,158.133,199.25,161.417,199.25L164.7,199.25" id="L-A-B-0" class="edge-thickness-normal edge-pattern-solid flowchart-link LS-A LE-B" style="fill:none;" marker-end="url(#my-svg_flowchart-pointEnd)"/><path d="M294,199.25L298.167,199.25C302.333,199.25,310.667,199.25,318.117,199.25C325.567,199.25,332.133,199.25,335.417,199.25L338.7,199.25" id="L-B-C-0" class="edge-thickness-normal edge-pattern-solid flowchart-link LS-B LE-C" style="fill:none;" marker-end="url(#my-svg_flowchart-pointEnd)"/><path d="M456.757,180.75L469.131,173.542C481.505,166.333,506.252,151.917,521.993,144.774C537.734,137.632,544.467,137.764,547.834,137.83L551.201,137.896" id="L-C-D-0" class="edge-thickness-normal edge-pattern-solid flowchart-link LS-C LE-D" style="fill:none;" marker-end="url(#my-svg_flowchart-pointEnd)"/><path d="M733.5,138L742.25,137.917C751,137.833,768.5,137.667,787.617,137.583C806.733,137.5,827.467,137.5,837.833,137.5L848.2,137.5" id="L-D-E-0" class="edge-thickness-normal edge-pattern-solid flowchart-link LS-D LE-E" style="fill:none;" marker-end="url(#my-svg_flowchart-pointEnd)"/><path d="M695.191,99.691L710.326,87.993C725.461,76.294,755.73,52.897,782.732,41.199C809.733,29.5,833.467,29.5,845.333,29.5L857.2,29.5" id="L-D-F-0" class="edge-thickness-normal edge-pattern-solid flowchart-link LS-D LE-F" style="fill:none;" marker-end="url(#my-svg_flowchart-pointEnd)"/><path d="M705.79,165.71L719.158,171.758C732.527,177.807,759.263,189.903,785.341,199.859C811.419,209.814,836.837,217.628,849.547,221.536L862.256,225.443" id="L-D-G-0" class="edge-thickness-normal edge-pattern-solid flowchart-link LS-D LE-G" style="fill:none;" marker-end="url(#my-svg_flowchart-pointEnd)"/><path d="M839,255.194L830.167,256.162C821.333,257.13,803.667,259.065,771.25,260.032C738.833,261,691.667,261,649.167,261C606.667,261,568.833,261,538.306,254.236C507.779,247.473,484.558,233.945,472.947,227.182L461.337,220.418" id="L-G-C-0" class="edge-thickness-normal edge-pattern-solid flowchart-link LS-G LE-C" style="fill:none;" marker-end="url(#my-svg_flowchart-pointEnd)"/><path d="M992.5,29.5L1007.5,29.5C1022.5,29.5,1052.5,29.5,1077.703,30.333C1102.906,31.166,1123.312,32.832,1133.515,33.664L1143.718,34.497" id="L-F-H-0" class="edge-thickness-normal edge-pattern-solid flowchart-link LS-F LE-H" style="fill:none;" marker-end="url(#my-svg_flowchart-pointEnd)"/><path d="M1001.5,144.9L1015,146.25C1028.5,147.6,1055.5,150.3,1081.117,151.65C1106.733,153,1130.967,153,1143.083,153L1155.2,153" id="L-E-I-0" class="edge-thickness-normal edge-pattern-solid flowchart-link LS-E LE-I" style="fill:none;" marker-end="url(#my-svg_flowchart-pointEnd)"/><path d="M993.42,119L1008.266,114.833C1023.113,110.667,1052.807,102.333,1080.332,92.526C1107.858,82.718,1133.217,71.436,1145.896,65.795L1158.575,60.154" id="L-E-H-0" class="edge-thickness-normal edge-pattern-solid flowchart-link LS-E LE-H" style="fill:none;" marker-end="url(#my-svg_flowchart-pointEnd)"/><path d="M1261,39.5L1265.167,39.5C1269.333,39.5,1277.667,39.5,1285.117,39.5C1292.567,39.5,1299.133,39.5,1302.417,39.5L1305.7,39.5" id="L-H-J-0" class="edge-thickness-normal edge-pattern-solid flowchart-link LS-H LE-J" style="fill:none;" marker-end="url(#my-svg_flowchart-pointEnd)"/></g><g class="edgeLabels"><g class="edgeLabel"><g class="label" transform="translate(0, 0)"><foreignObject width="0" height="0"><div xmlns="http://www.w3.org/1999/xhtml" style="display: inline-block; white-space: nowrap;"><span class="edgeLabel"></span></div></foreignObject></g></g><g class="edgeLabel"><g class="label" transform="translate(0, 0)"><foreignObject width="0" height="0"><div xmlns="http://www.w3.org/1999/xhtml" style="display: inline-block; white-space: nowrap;"><span class="edgeLabel"></span></div></foreignObject></g></g><g class="edgeLabel"><g class="label" transform="translate(0, 0)"><foreignObject width="0" height="0"><div xmlns="http://www.w3.org/1999/xhtml" style="display: inline-block; white-space: nowrap;"><span class="edgeLabel"></span></div></foreignObject></g></g><g class="edgeLabel" transform="translate(786, 137.5)"><g class="label" transform="translate(-12, -11)"><foreignObject width="24" height="22"><div xmlns="http://www.w3.org/1999/xhtml" style="display: inline-block; white-space: nowrap;"><span class="edgeLabel">2xx</span></div></foreignObject></g></g><g class="edgeLabel" transform="translate(786, 29.5)"><g class="label" transform="translate(-12, -11)"><foreignObject width="24" height="22"><div xmlns="http://www.w3.org/1999/xhtml" style="display: inline-block; white-space: nowrap;"><span class="edgeLabel">4xx</span></div></foreignObject></g></g><g class="edgeLabel" transform="translate(786, 202)"><g class="label" transform="translate(-28, -11)"><foreignObject width="56" height="22"><div xmlns="http://www.w3.org/1999/xhtml" style="display: inline-block; white-space: nowrap;"><span class="edgeLabel">5xx/429</span></div></foreignObject></g></g><g class="edgeLabel"><g class="label" transform="translate(0, 0)"><foreignObject width="0" height="0"><div xmlns="http://www.w3.org/1999/xhtml" style="display: inline-block; white-space: nowrap;"><span class="edgeLabel"></span></div></foreignObject></g></g><g class="edgeLabel"><g class="label" transform="translate(0, 0)"><foreignObject width="0" height="0"><div xmlns="http://www.w3.org/1999/xhtml" style="display: inline-block; white-space: nowrap;"><span class="edgeLabel"></span></div></foreignObject></g></g><g class="edgeLabel"><g class="label" transform="translate(0, 0)"><foreignObject width="0" height="0"><div xmlns="http://www.w3.org/1999/xhtml" style="display: inline-block; white-space: nowrap;"><span class="edgeLabel"></span></div></foreignObject></g></g><g class="edgeLabel" transform="translate(1082.5, 94)"><g class="label" transform="translate(-41.5, -11)"><foreignObject width="83" height="22"><div xmlns="http://www.w3.org/1999/xhtml" style="display: inline-block; white-space: nowrap;"><span class="edgeLabel">Parseo Falla</span></div></foreignObject></g></g><g class="edgeLabel"><g class="label" transform="translate(0, 0)"><foreignObject width="0" height="0"><div xmlns="http://www.w3.org/1999/xhtml" style="display: inline-block; white-space: nowrap;"><span class="edgeLabel"></span></div></foreignObject></g></g></g><g class="nodes"><g class="node default default flowchart-label" id="flowchart-A-0" data-node="true" data-id="A" transform="translate(60, 199.25)"><rect class="basic label-container" style="" rx="0" ry="0" x="-60" y="-18.5" width="120" height="37"/><g class="label" style="" transform="translate(-52.5, -11)"><rect/><foreignObject width="105" height="22"><div xmlns="http://www.w3.org/1999/xhtml" style="display: inline-block; white-space: nowrap;"><span class="nodeLabel">Armar Petición</span></div></foreignObject></g></g><g class="node default default flowchart-label" id="flowchart-B-1" data-node="true" data-id="B" transform="translate(232, 199.25)"><rect class="basic label-container" style="" rx="0" ry="0" x="-62" y="-18.5" width="124" height="37"/><g class="label" style="" transform="translate(-54.5, -11)"><rect/><foreignObject width="109" height="22"><div xmlns="http://www.w3.org/1999/xhtml" style="display: inline-block; white-space: nowrap;"><span class="nodeLabel">Setear Timeout</span></div></foreignObject></g></g><g class="node default default flowchart-label" id="flowchart-C-3" data-node="true" data-id="C" transform="translate(425, 199.25)"><rect class="basic label-container" style="" rx="0" ry="0" x="-81" y="-18.5" width="162" height="37"/><g class="label" style="" transform="translate(-73.5, -11)"><rect/><foreignObject width="147" height="22"><div xmlns="http://www.w3.org/1999/xhtml" style="display: inline-block; white-space: nowrap;"><span class="nodeLabel">Enviar HTTP Request</span></div></foreignObject></g></g><g class="node default default flowchart-label" id="flowchart-D-5" data-node="true" data-id="D" transform="translate(644.5, 137.5)"><polygon points="88.5,0 177,-88.5 88.5,-177 0,-88.5" class="label-container" transform="translate(-88.5,88.5)" style=""/><g class="label" style="" transform="translate(-62.5, -11)"><rect/><foreignObject width="125" height="22"><div xmlns="http://www.w3.org/1999/xhtml" style="display: inline-block; white-space: nowrap;"><span class="nodeLabel">Código de Estado</span></div></foreignObject></g></g><g class="node default default flowchart-label" id="flowchart-E-7" data-node="true" data-id="E" transform="translate(927.5, 137.5)"><rect class="basic label-container" style="" rx="0" ry="0" x="-74" y="-18.5" width="148" height="37"/><g class="label" style="" transform="translate(-66.5, -11)"><rect/><foreignObject width="133" height="22"><div xmlns="http://www.w3.org/1999/xhtml" style="display: inline-block; white-space: nowrap;"><span class="nodeLabel">Parsear JSON Body</span></div></foreignObject></g></g><g class="node default default flowchart-label" id="flowchart-F-9" data-node="true" data-id="F" transform="translate(927.5, 29.5)"><rect class="basic label-container" style="" rx="0" ry="0" x="-65" y="-29.5" width="130" height="59"/><g class="label" style="" transform="translate(-57.5, -22)"><rect/><foreignObject width="115" height="44"><div xmlns="http://www.w3.org/1999/xhtml" style="display: inline-block; white-space: nowrap;"><span class="nodeLabel">Error de Cliente<br />No Reintentar</span></div></foreignObject></g></g><g class="node default default flowchart-label" id="flowchart-G-11" data-node="true" data-id="G" transform="translate(927.5, 245.5)"><rect class="basic label-container" style="" rx="0" ry="0" x="-88.5" y="-18.5" width="177" height="37"/><g class="label" style="" transform="translate(-81, -11)"><rect/><foreignObject width="162" height="22"><div xmlns="http://www.w3.org/1999/xhtml" style="display: inline-block; white-space: nowrap;"><span class="nodeLabel">Reintentar con Backoff</span></div></foreignObject></g></g><g class="node default default flowchart-label" id="flowchart-H-15" data-node="true" data-id="H" transform="translate(1205, 39.5)"><rect class="basic label-container" style="" rx="0" ry="0" x="-56" y="-18.5" width="112" height="37"/><g class="label" style="" transform="translate(-48.5, -11)"><rect/><foreignObject width="97" height="22"><div xmlns="http://www.w3.org/1999/xhtml" style="display: inline-block; white-space: nowrap;"><span class="nodeLabel">Manejar Error</span></div></foreignObject></g></g><g class="node default default flowchart-label" id="flowchart-I-17" data-node="true" data-id="I" transform="translate(1205, 153)"><rect class="basic label-container" style="" rx="0" ry="0" x="-44.5" y="-18.5" width="89" height="37"/><g class="label" style="" transform="translate(-37, -11)"><rect/><foreignObject width="74" height="22"><div xmlns="http://www.w3.org/1999/xhtml" style="display: inline-block; white-space: nowrap;"><span class="nodeLabel">Usar Datos</span></div></foreignObject></g></g><g class="node default default flowchart-label" id="flowchart-J-21" data-node="true" data-id="J" transform="translate(1386, 39.5)"><rect class="basic label-container" style="" rx="0" ry="0" x="-75" y="-18.5" width="150" height="37"/><g class="label" style="" transform="translate(-67.5, -11)"><rect/><foreignObject width="135" height="22"><div xmlns="http://www.w3.org/1999/xhtml" style="display: inline-block; white-space: nowrap;"><span class="nodeLabel">Loguear y Reportar</span></div></foreignObject></g></g></g></g></g></svg>