<svg id="my-svg" width="100%" xmlns="http://www.w3.org/2000/svg" xmlns:xlink="http://www.w3.org/1999/xlink" style="max-width: 1933px; background-color: white;" viewBox="-8 -8 1933 201" role="graphics-document document" aria-roledescription="flowchart-v2"><style>#my-svg{font-family:"trebuchet ms",verdana,arial,sans-serif;font-size:16px;fill:#333;}#my-svg .error-icon{fill:#552222;}#my-svg .error-text{fill:#552222;stroke:#552222;}#my-svg .edge-thickness-normal{stroke-width:2px;}#my-svg .edge-thickness-thick{stroke-width:3.5px;}#my-svg .edge-pattern-solid{stroke-dasharray:0;}#my-svg .edge-pattern-dashed{stroke-dasharray:3;}#my-svg .edge-pattern-dotted{stroke-dasharray:2;}#my-svg .marker{fill:#333333;stroke:#333333;}#my-svg .marker.cross{stroke:#333333;}#my-svg svg{font-family:"trebuchet ms",verdana,arial,sans-serif;font-size:16px;}#my-svg .label{font-family:"trebuchet ms",verdana,arial,sans-serif;color:#333;}#my-svg .cluster-label text{fill:#333;}#my-svg .cluster-label span,#my-svg p{color:#333;}#my-svg .label text,#my-svg span,#my-svg p{fill:#333;color:#333;}#my-svg .node rect,#my-svg .node circle,#my-svg .node ellipse,#my-svg .node polygon,#my-svg .node path{fill:#ECECFF;stroke:#9370DB;stroke-width:1px;}#my-svg .flowchart-label text{text-anchor:middle;}#my-svg .node .katex path{fill:#000;stroke:#000;stroke-width:1px;}#my-svg .node .label{text-align:center;}#my-svg .node.clickable{cursor:pointer;}#my-svg .arrowheadPath{fill:#333333;}#my-svg .edgePath .path{stroke:#333333;stroke-width:2.0px;}#my-svg .flowchart-link{stroke:#333333;fill:none;}#my-svg .edgeLabel{background-color:#e8e8e8;text-align:center;}#my-svg .edgeLabel rect{opacity:0.5;background-color:#e8e8e8;fill:#e8e8e8;}#my-svg .labelBkg{background-color:rgba(232, 232, 232, 0.5);}#my-svg .cluster rect{fill:#ffffde;stroke:#aaaa33;stroke-width:1px;}#my-svg .cluster text{fill:#333;}#my-svg .cluster span,#my-svg p{color:#333;}#my-svg div.mermaidTooltip{position:absolute;text-align:center;max-width:200px;padding:2px;font-family:"trebuchet ms",verdana,arial,sans-serif;font-size:12px;background:hsl(80, 100%, 96.2745098039%);border:1px solid #aaaa33;border-radius:2px;pointer-events:none;z-index:100;}#my-svg .flowchartTitleText{text-anchor:middle;font-size:18px;fill:#333;}#my-svg :root{--mermaid-font-family:"trebuchet ms",verdana,arial,sans-serif;}</style><g><marker id="my-svg_flowchart-pointEnd" class="marker flowchart" viewBox="0 0 10 10" refX="6" refY="5" markerUnits="userSpaceOnUse" markerWidth="12" markerHeight="12" orient="auto"><path d="M 0 0 L 10 5 L 0 10 z" class="arrowMarkerPath" style="stroke-width: 1; stroke-dasharray: 1, 0;"/></marker><marker id="my-svg_flowchart-pointStart" class="marker flowchart" viewBox="0 0 10 10" refX="4.5" refY="5" markerUnits="userSpaceOnUse" markerWidth="12" markerHeight="12" orient="auto"><path d="M 0 5 L 10 10 L 10 0 z" class="arrowMarkerPath" style="stroke-width: 1; stroke-dasharray: 1, 0;"/></marker><marker id="my-svg_flowchart-circleEnd" class="marker flowchart" viewBox="0 0 10 10" refX="11" refY="5" markerUnits="userSpaceOnUse" markerWidth="11" markerHeight="11" orient="auto"><circle cx="5" cy="5" r="5" class="arrowMarkerPath" style="stroke-width: 1; stroke-dasharray: 1, 0;"/></marker><marker id="my-svg_flowchart-circleStart" class="marker flowchart" viewBox="0 0 10 10" refX="-1" refY="5" markerUnits="userSpaceOnUse" markerWidth="11" markerHeight="11" orient="auto"><circle cx="5" cy="5" r="5" class="arrowMarkerPath" style="stroke-width: 1; stroke-dasharray: 1, 0;"/></marker><marker id="my-svg_flowchart-crossEnd" class="marker cross flowchart" viewBox="0 0 11 11" refX="12" refY="5.2" markerUnits="userSpaceOnUse" markerWidth="11" markerHeight="11" orient="auto"><path d="M 1,1 l 9,9 M 10,1 l -9,9" class="arrowMarkerPath" style="stroke-width: 2; stroke-dasharray: 1, 0;"/></marker><marker id="my-svg_flowchart-crossStart" class="marker cross flowchart" viewBox="0 0 11 11" refX="-1" refY="5.2" markerUnits="userSpaceOnUse" markerWidth="11" markerHeight="11" orient="auto"><path d="M 1,1 l 9,9 M 10,1 l -9,9" class="arrowMarkerPath" style="stroke-width: 2; stroke-dasharray: 1, 0;"/></marker><g class="root"><g class="clusters"/><g class="edgePaths"><path d="M163,92.5L167.167,92.5C171.333,92.5,179.667,92.5,187.117,92.5C194.567,92.5,201.133,92.5,204.417,92.5L207.7,92.5" id="L-A-B-0" class="edge-thickness-normal edge-pattern-solid flowchart-link LS-A LE-B" style="fill:none;" marker-end="url(#my-svg_flowchart-pointEnd)"/><path d="M336,92.5L340.167,92.5C344.333,92.5,352.667,92.5,360.117,92.5C367.567,92.5,374.133,92.5,377.417,92.5L380.7,92.5" id="L-B-C-0" class="edge-thickness-normal edge-pattern-solid flowchart-link LS-B LE-C" style="fill:none;" marker-end="url(#my-svg_flowchart-pointEnd)"/><path d="M571,92.5L575.167,92.5C579.333,92.5,587.667,92.5,595.117,92.5C602.567,92.5,609.133,92.5,612.417,92.5L615.7,92.5" id="L-C-D-0" class="edge-thickness-normal edge-pattern-solid flowchart-link LS-C LE-D" style="fill:none;" marker-end="url(#my-svg_flowchart-pointEnd)"/><path d="M805,92.5L809.167,92.5C813.333,92.5,821.667,92.5,829.117,92.5C836.567,92.5,843.133,92.5,846.417,92.5L849.7,92.5" id="L-D-E-0" class="edge-thickness-normal edge-pattern-solid flowchart-link LS-D LE-E" style="fill:none;" marker-end="url(#my-svg_flowchart-pointEnd)"/><path d="M1006,92.5L1010.167,92.5C1014.333,92.5,1022.667,92.5,1030.117,92.5C1037.567,92.5,1044.133,92.5,1047.417,92.5L1050.7,92.5" id="L-E-F-0" class="edge-thickness-normal edge-pattern-solid flowchart-link LS-E LE-F" style="fill:none;" marker-end="url(#my-svg_flowchart-pointEnd)"/><path d="M1201.74,74L1209.45,71.708C1217.16,69.417,1232.58,64.833,1243.573,62.542C1254.567,60.25,1261.133,60.25,1264.417,60.25L1267.7,60.25" id="L-F-G-0" class="edge-thickness-normal edge-pattern-solid flowchart-link LS-F LE-G" style="fill:none;" marker-end="url(#my-svg_flowchart-pointEnd)"/><path d="M1450,60.25L1454.167,60.25C1458.333,60.25,1466.667,60.25,1477.553,62.148C1488.44,64.046,1501.88,67.842,1508.6,69.741L1515.32,71.639" id="L-G-H-0" class="edge-thickness-normal edge-pattern-solid flowchart-link LS-G LE-H" style="fill:none;" marker-end="url(#my-svg_flowchart-pointEnd)"/><path d="M1520.421,112.921L1512.851,114.892C1505.28,116.864,1490.14,120.807,1463.653,122.778C1437.167,124.75,1399.333,124.75,1361.5,124.75C1323.667,124.75,1285.833,124.75,1260.053,122.71C1234.274,120.67,1220.547,116.59,1213.684,114.55L1206.821,112.51" id="L-H-F-0" class="edge-thickness-normal edge-pattern-solid flowchart-link LS-H LE-F" style="fill:none;" marker-end="url(#my-svg_flowchart-pointEnd)"/><path d="M1685.5,93L1691.417,92.917C1697.333,92.833,1709.167,92.667,1720.2,92.583C1731.233,92.5,1741.467,92.5,1746.583,92.5L1751.7,92.5" id="L-H-I-0" class="edge-thickness-normal edge-pattern-solid flowchart-link LS-H LE-I" style="fill:none;" marker-end="url(#my-svg_flowchart-pointEnd)"/></g><g class="edgeLabels"><g class="edgeLabel"><g class="label" transform="translate(0, 0)"><foreignObject width="0" height="0"><div xmlns="http://www.w3.org/1999/xhtml" style="display: inline-block; white-space: nowrap;"><span class="edgeLabel"></span></div></foreignObject></g></g><g class="edgeLabel"><g class="label" transform="translate(0, 0)"><foreignObject width="0" height="0"><div xmlns="http://www.w3.org/1999/xhtml" style="display: inline-block; white-space: nowrap;"><span class="edgeLabel"></span></div></foreignObject></g></g><g class="edgeLabel"><g class="label" transform="translate(0, 0)"><foreignObject width="0" height="0"><div xmlns="http://www.w3.org/1999/xhtml" style="display: inline-block; white-space: nowrap;"><span class="edgeLabel"></span></div></foreignObject></g></g><g class="edgeLabel"><g class="label" transform="translate(0, 0)"><foreignObject width="0" height="0"><div xmlns="http://www.w3.org/1999/xhtml" style="display: inline-block; white-space: nowrap;"><span class="edgeLabel"></span></div></foreignObject></g></g><g class="edgeLabel"><g class="label" transform="translate(0, 0)"><foreignObject width="0" height="0"><div xmlns="http://www.w3.org/1999/xhtml" style="display: inline-block; white-space: nowrap;"><span class="edgeLabel"></span></div></foreignObject></g></g><g class="edgeLabel"><g class="label" transform="translate(0, 0)"><foreignObject width="0" height="0"><div xmlns="http://www.w3.org/1999/xhtml" style="display: inline-block; white-space: nowrap;"><span class="edgeLabel"></span></div></foreignObject></g></g><g class="edgeLabel"><g class="label" transform="translate(0, 0)"><foreignObject width="0" height="0"><div xmlns="http://www.w3.org/1999/xhtml" style="display: inline-block; white-space: nowrap;"><span class="edgeLabel"></span></div></foreignObject></g></g><g class="edgeLabel" transform="translate(1361.5, 124.75)"><g class="label" transform="translate(-9.5, -11)"><foreignObject width="19" height="22"><div xmlns="http://www.w3.org/1999/xhtml" style="display: inline-block; white-space: nowrap;"><span class="edgeLabel">No</span></div></foreignObject></g></g><g class="edgeLabel" transform="translate(1721, 92.5)"><g class="label" transform="translate(-11, -11)"><foreignObject width="22" height="22"><div xmlns="http://www.w3.org/1999/xhtml" style="display: inline-block; white-space: nowrap;"><span class="edgeLabel">Yes</span></div></foreignObject></g></g></g><g class="nodes"><g class="node default default flowchart-label" id="flowchart-A-0" data-node="true" data-id="A" transform="translate(81.5, 92.5)"><rect class="basic label-container" style="" rx="0" ry="0" x="-81.5" y="-18.5" width="163" height="37"/><g class="label" style="" transform="translate(-74, -11)"><rect/><foreignObject width="148" height="22"><div xmlns="http://www.w3.org/1999/xhtml" style="display: inline-block; white-space: nowrap;"><span class="nodeLabel">Planning and Scoping</span></div></foreignObject></g></g><g class="node default default flowchart-label" id="flowchart-B-1" data-node="true" data-id="B" transform="translate(274.5, 92.5)"><rect class="basic label-container" style="" rx="0" ry="0" x="-61.5" y="-18.5" width="123" height="37"/><g class="label" style="" transform="translate(-54, -11)"><rect/><foreignObject width="108" height="22"><div xmlns="http://www.w3.org/1999/xhtml" style="display: inline-block; white-space: nowrap;"><span class="nodeLabel">Reconnaissance</span></div></foreignObject></g></g><g class="node default default flowchart-label" id="flowchart-C-3" data-node="true" data-id="C" transform="translate(478.5, 92.5)"><rect class="basic label-container" style="" rx="0" ry="0" x="-92.5" y="-18.5" width="185" height="37"/><g class="label" style="" transform="translate(-85, -11)"><rect/><foreignObject width="170" height="22"><div xmlns="http://www.w3.org/1999/xhtml" style="display: inline-block; white-space: nowrap;"><span class="nodeLabel">Testing and Exploitation</span></div></foreignObject></g></g><g class="node default default flowchart-label" id="flowchart-D-5" data-node="true" data-id="D" transform="translate(713, 92.5)"><rect class="basic label-container" style="" rx="0" ry="0" x="-92" y="-18.5" width="184" height="37"/><g class="label" style="" transform="translate(-84.5, -11)"><rect/><foreignObject width="169" height="22"><div xmlns="http://www.w3.org/1999/xhtml" style="display: inline-block; white-space: nowrap;"><span class="nodeLabel">Findings Documentation</span></div></foreignObject></g></g><g class="node default default flowchart-label" id="flowchart-E-7" data-node="true" data-id="E" transform="translate(930.5, 92.5)"><rect class="basic label-container" style="" rx="0" ry="0" x="-75.5" y="-18.5" width="151" height="37"/><g class="label" style="" transform="translate(-68, -11)"><rect/><foreignObject width="136" height="22"><div xmlns="http://www.w3.org/1999/xhtml" style="display: inline-block; white-space: nowrap;"><span class="nodeLabel">Report and Debrief</span></div></foreignObject></g></g><g class="node default default flowchart-label" id="flowchart-F-9" data-node="true" data-id="F" transform="translate(1139.5, 92.5)"><rect class="basic label-container" style="" rx="0" ry="0" x="-83.5" y="-18.5" width="167" height="37"/><g class="label" style="" transform="translate(-76, -11)"><rect/><foreignObject width="152" height="22"><div xmlns="http://www.w3.org/1999/xhtml" style="display: inline-block; white-space: nowrap;"><span class="nodeLabel">Remediation Tracking</span></div></foreignObject></g></g><g class="node default default flowchart-label" id="flowchart-G-11" data-node="true" data-id="G" transform="translate(1361.5, 60.25)"><rect class="basic label-container" style="" rx="0" ry="0" x="-88.5" y="-18.5" width="177" height="37"/><g class="label" style="" transform="translate(-81, -11)"><rect/><foreignObject width="162" height="22"><div xmlns="http://www.w3.org/1999/xhtml" style="display: inline-block; white-space: nowrap;"><span class="nodeLabel">Retest and Verification</span></div></foreignObject></g></g><g class="node default default flowchart-label" id="flowchart-H-13" data-node="true" data-id="H" transform="translate(1592.5, 92.5)"><polygon points="92.5,0 185,-92.5 92.5,-185 0,-92.5" class="label-container" transform="translate(-92.5,92.5)" style=""/><g class="label" style="" transform="translate(-66.5, -11)"><rect/><foreignObject width="133" height="22"><div xmlns="http://www.w3.org/1999/xhtml" style="display: inline-block; white-space: nowrap;"><span class="nodeLabel">All findings closed?</span></div></foreignObject></g></g><g class="node default default flowchart-label" id="flowchart-I-17" data-node="true" data-id="I" transform="translate(1837, 92.5)"><rect class="basic label-container" style="" rx="0" ry="0" x="-80" y="-18.5" width="160" height="37"/><g class="label" style="" transform="translate(-72.5, -11)"><rect/><foreignObject width="145" height="22"><div xmlns="http://www.w3.org/1999/xhtml" style="display: inline-block; white-space: nowrap;"><span class="nodeLabel">Sign-off and Archive</span></div></foreignObject></g></g></g></g></g></svg>