<svg id="my-svg" width="100%" xmlns="http://www.w3.org/2000/svg" xmlns:xlink="http://www.w3.org/1999/xlink" style="max-width: 1639px; background-color: white;" viewBox="-8 -8 1639 401" role="graphics-document document" aria-roledescription="flowchart-v2"><style>#my-svg{font-family:"trebuchet ms",verdana,arial,sans-serif;font-size:16px;fill:#333;}#my-svg .error-icon{fill:#552222;}#my-svg .error-text{fill:#552222;stroke:#552222;}#my-svg .edge-thickness-normal{stroke-width:2px;}#my-svg .edge-thickness-thick{stroke-width:3.5px;}#my-svg .edge-pattern-solid{stroke-dasharray:0;}#my-svg .edge-pattern-dashed{stroke-dasharray:3;}#my-svg .edge-pattern-dotted{stroke-dasharray:2;}#my-svg .marker{fill:#333333;stroke:#333333;}#my-svg .marker.cross{stroke:#333333;}#my-svg svg{font-family:"trebuchet ms",verdana,arial,sans-serif;font-size:16px;}#my-svg .label{font-family:"trebuchet ms",verdana,arial,sans-serif;color:#333;}#my-svg .cluster-label text{fill:#333;}#my-svg .cluster-label span,#my-svg p{color:#333;}#my-svg .label text,#my-svg span,#my-svg p{fill:#333;color:#333;}#my-svg .node rect,#my-svg .node circle,#my-svg .node ellipse,#my-svg .node polygon,#my-svg .node path{fill:#ECECFF;stroke:#9370DB;stroke-width:1px;}#my-svg .flowchart-label text{text-anchor:middle;}#my-svg .node .katex path{fill:#000;stroke:#000;stroke-width:1px;}#my-svg .node .label{text-align:center;}#my-svg .node.clickable{cursor:pointer;}#my-svg .arrowheadPath{fill:#333333;}#my-svg .edgePath .path{stroke:#333333;stroke-width:2.0px;}#my-svg .flowchart-link{stroke:#333333;fill:none;}#my-svg .edgeLabel{background-color:#e8e8e8;text-align:center;}#my-svg .edgeLabel rect{opacity:0.5;background-color:#e8e8e8;fill:#e8e8e8;}#my-svg .labelBkg{background-color:rgba(232, 232, 232, 0.5);}#my-svg .cluster rect{fill:#ffffde;stroke:#aaaa33;stroke-width:1px;}#my-svg .cluster text{fill:#333;}#my-svg .cluster span,#my-svg p{color:#333;}#my-svg div.mermaidTooltip{position:absolute;text-align:center;max-width:200px;padding:2px;font-family:"trebuchet ms",verdana,arial,sans-serif;font-size:12px;background:hsl(80, 100%, 96.2745098039%);border:1px solid #aaaa33;border-radius:2px;pointer-events:none;z-index:100;}#my-svg .flowchartTitleText{text-anchor:middle;font-size:18px;fill:#333;}#my-svg :root{--mermaid-font-family:"trebuchet ms",verdana,arial,sans-serif;}</style><g><marker id="my-svg_flowchart-pointEnd" class="marker flowchart" viewBox="0 0 10 10" refX="6" refY="5" markerUnits="userSpaceOnUse" markerWidth="12" markerHeight="12" orient="auto"><path d="M 0 0 L 10 5 L 0 10 z" class="arrowMarkerPath" style="stroke-width: 1; stroke-dasharray: 1, 0;"/></marker><marker id="my-svg_flowchart-pointStart" class="marker flowchart" viewBox="0 0 10 10" refX="4.5" refY="5" markerUnits="userSpaceOnUse" markerWidth="12" markerHeight="12" orient="auto"><path d="M 0 5 L 10 10 L 10 0 z" class="arrowMarkerPath" style="stroke-width: 1; stroke-dasharray: 1, 0;"/></marker><marker id="my-svg_flowchart-circleEnd" class="marker flowchart" viewBox="0 0 10 10" refX="11" refY="5" markerUnits="userSpaceOnUse" markerWidth="11" markerHeight="11" orient="auto"><circle cx="5" cy="5" r="5" class="arrowMarkerPath" style="stroke-width: 1; stroke-dasharray: 1, 0;"/></marker><marker id="my-svg_flowchart-circleStart" class="marker flowchart" viewBox="0 0 10 10" refX="-1" refY="5" markerUnits="userSpaceOnUse" markerWidth="11" markerHeight="11" orient="auto"><circle cx="5" cy="5" r="5" class="arrowMarkerPath" style="stroke-width: 1; stroke-dasharray: 1, 0;"/></marker><marker id="my-svg_flowchart-crossEnd" class="marker cross flowchart" viewBox="0 0 11 11" refX="12" refY="5.2" markerUnits="userSpaceOnUse" markerWidth="11" markerHeight="11" orient="auto"><path d="M 1,1 l 9,9 M 10,1 l -9,9" class="arrowMarkerPath" style="stroke-width: 2; stroke-dasharray: 1, 0;"/></marker><marker id="my-svg_flowchart-crossStart" class="marker cross flowchart" viewBox="0 0 11 11" refX="-1" refY="5.2" markerUnits="userSpaceOnUse" markerWidth="11" markerHeight="11" orient="auto"><path d="M 1,1 l 9,9 M 10,1 l -9,9" class="arrowMarkerPath" style="stroke-width: 2; stroke-dasharray: 1, 0;"/></marker><g class="root"><g class="clusters"/><g class="edgePaths"><path d="M85,192.5L89.167,192.5C93.333,192.5,101.667,192.5,109.117,192.5C116.567,192.5,123.133,192.5,126.417,192.5L129.7,192.5" id="L-A-B-0" class="edge-thickness-normal edge-pattern-solid flowchart-link LS-A LE-B" style="fill:none;" marker-end="url(#my-svg_flowchart-pointEnd)"/><path d="M219,192.5L223.167,192.5C227.333,192.5,235.667,192.5,243.117,192.5C250.567,192.5,257.133,192.5,260.417,192.5L263.7,192.5" id="L-B-C-0" class="edge-thickness-normal edge-pattern-solid flowchart-link LS-B LE-C" style="fill:none;" marker-end="url(#my-svg_flowchart-pointEnd)"/><path d="M480,192.5L484.167,192.5C488.333,192.5,496.667,192.5,504.117,192.5C511.567,192.5,518.133,192.5,521.417,192.5L524.7,192.5" id="L-C-D-0" class="edge-thickness-normal edge-pattern-solid flowchart-link LS-C LE-D" style="fill:none;" marker-end="url(#my-svg_flowchart-pointEnd)"/><path d="M579.124,174L589.103,148.083C599.082,122.167,619.041,70.333,637.721,44.417C656.4,18.5,673.8,18.5,682.5,18.5L691.2,18.5" id="L-D-E-0" class="edge-thickness-normal edge-pattern-solid flowchart-link LS-D LE-E" style="fill:none;" marker-end="url(#my-svg_flowchart-pointEnd)"/><path d="M586.247,174L595.039,162.583C603.831,151.167,621.416,128.333,633.491,116.917C645.567,105.5,652.133,105.5,655.417,105.5L658.7,105.5" id="L-D-F-0" class="edge-thickness-normal edge-pattern-solid flowchart-link LS-D LE-F" style="fill:none;" marker-end="url(#my-svg_flowchart-pointEnd)"/><path d="M614,192.5L618.167,192.5C622.333,192.5,630.667,192.5,645.867,192.5C661.067,192.5,683.133,192.5,694.167,192.5L705.2,192.5" id="L-D-G-0" class="edge-thickness-normal edge-pattern-solid flowchart-link LS-D LE-G" style="fill:none;" marker-end="url(#my-svg_flowchart-pointEnd)"/><path d="M586.247,211L595.039,222.417C603.831,233.833,621.416,256.667,639.741,268.083C658.067,279.5,677.133,279.5,686.667,279.5L696.2,279.5" id="L-D-H-0" class="edge-thickness-normal edge-pattern-solid flowchart-link LS-D LE-H" style="fill:none;" marker-end="url(#my-svg_flowchart-pointEnd)"/><path d="M579.124,211L589.103,236.917C599.082,262.833,619.041,314.667,644.137,340.583C669.233,366.5,699.467,366.5,714.583,366.5L729.7,366.5" id="L-D-I-0" class="edge-thickness-normal edge-pattern-solid flowchart-link LS-D LE-I" style="fill:none;" marker-end="url(#my-svg_flowchart-pointEnd)"/><path d="M848.5,18.5L858.083,18.5C867.667,18.5,886.833,18.5,914.154,43.694C941.475,68.889,976.95,119.278,994.687,144.472L1012.425,169.666" id="L-E-J-0" class="edge-thickness-normal edge-pattern-solid flowchart-link LS-E LE-J" style="fill:none;" marker-end="url(#my-svg_flowchart-pointEnd)"/><path d="M881,105.5L885.167,105.5C889.333,105.5,897.667,105.5,917.188,116.405C936.71,127.31,967.42,149.121,982.775,160.026L998.13,170.931" id="L-F-J-0" class="edge-thickness-normal edge-pattern-solid flowchart-link LS-F LE-J" style="fill:none;" marker-end="url(#my-svg_flowchart-pointEnd)"/><path d="M834.5,192.5L846.417,192.5C858.333,192.5,882.167,192.5,897.367,192.5C912.567,192.5,919.133,192.5,922.417,192.5L925.7,192.5" id="L-G-J-0" class="edge-thickness-normal edge-pattern-solid flowchart-link LS-G LE-J" style="fill:none;" marker-end="url(#my-svg_flowchart-pointEnd)"/><path d="M843.5,279.5L853.917,279.5C864.333,279.5,885.167,279.5,910.938,268.595C936.71,257.69,967.42,235.879,982.775,224.974L998.13,214.069" id="L-H-J-0" class="edge-thickness-normal edge-pattern-solid flowchart-link LS-H LE-J" style="fill:none;" marker-end="url(#my-svg_flowchart-pointEnd)"/><path d="M810,366.5L826,366.5C842,366.5,874,366.5,907.737,341.306C941.475,316.111,976.95,265.722,994.687,240.528L1012.425,215.334" id="L-I-J-0" class="edge-thickness-normal edge-pattern-solid flowchart-link LS-I LE-J" style="fill:none;" marker-end="url(#my-svg_flowchart-pointEnd)"/><path d="M1126,192.5L1130.167,192.5C1134.333,192.5,1142.667,192.5,1150.2,192.566C1157.734,192.632,1164.467,192.764,1167.834,192.83L1171.201,192.896" id="L-J-K-0" class="edge-thickness-normal edge-pattern-solid flowchart-link LS-J LE-K" style="fill:none;" marker-end="url(#my-svg_flowchart-pointEnd)"/><path d="M1263.132,170.632L1272.777,163.777C1282.421,156.921,1301.711,143.211,1320.055,136.355C1338.4,129.5,1355.8,129.5,1364.5,129.5L1373.2,129.5" id="L-K-L-0" class="edge-thickness-normal edge-pattern-solid flowchart-link LS-K LE-L" style="fill:none;" marker-end="url(#my-svg_flowchart-pointEnd)"/><path d="M1263.132,215.368L1272.777,222.057C1282.421,228.745,1301.711,242.123,1316.555,248.883C1331.4,255.642,1341.8,255.785,1347,255.856L1352.2,255.927" id="L-K-M-0" class="edge-thickness-normal edge-pattern-solid flowchart-link LS-K LE-M" style="fill:none;" marker-end="url(#my-svg_flowchart-pointEnd)"/><path d="M1454.243,237.743L1463.202,233.452C1472.162,229.162,1490.081,220.581,1504.157,216.29C1518.233,212,1528.467,212,1533.583,212L1538.7,212" id="L-M-N-0" class="edge-thickness-normal edge-pattern-solid flowchart-link LS-M LE-N" style="fill:none;" marker-end="url(#my-svg_flowchart-pointEnd)"/><path d="M1454.243,274.257L1463.202,278.381C1472.162,282.505,1490.081,290.752,1505.24,294.876C1520.4,299,1532.8,299,1539,299L1545.2,299" id="L-M-O-0" class="edge-thickness-normal edge-pattern-solid flowchart-link LS-M LE-O" style="fill:none;" marker-end="url(#my-svg_flowchart-pointEnd)"/></g><g class="edgeLabels"><g class="edgeLabel"><g class="label" transform="translate(0, 0)"><foreignObject width="0" height="0"><div xmlns="http://www.w3.org/1999/xhtml" style="display: inline-block; white-space: nowrap;"><span class="edgeLabel"></span></div></foreignObject></g></g><g class="edgeLabel"><g class="label" transform="translate(0, 0)"><foreignObject width="0" height="0"><div xmlns="http://www.w3.org/1999/xhtml" style="display: inline-block; white-space: nowrap;"><span class="edgeLabel"></span></div></foreignObject></g></g><g class="edgeLabel"><g class="label" transform="translate(0, 0)"><foreignObject width="0" height="0"><div xmlns="http://www.w3.org/1999/xhtml" style="display: inline-block; white-space: nowrap;"><span class="edgeLabel"></span></div></foreignObject></g></g><g class="edgeLabel"><g class="label" transform="translate(0, 0)"><foreignObject width="0" height="0"><div xmlns="http://www.w3.org/1999/xhtml" style="display: inline-block; white-space: nowrap;"><span class="edgeLabel"></span></div></foreignObject></g></g><g class="edgeLabel"><g class="label" transform="translate(0, 0)"><foreignObject width="0" height="0"><div xmlns="http://www.w3.org/1999/xhtml" style="display: inline-block; white-space: nowrap;"><span class="edgeLabel"></span></div></foreignObject></g></g><g class="edgeLabel"><g class="label" transform="translate(0, 0)"><foreignObject width="0" height="0"><div xmlns="http://www.w3.org/1999/xhtml" style="display: inline-block; white-space: nowrap;"><span class="edgeLabel"></span></div></foreignObject></g></g><g class="edgeLabel"><g class="label" transform="translate(0, 0)"><foreignObject width="0" height="0"><div xmlns="http://www.w3.org/1999/xhtml" style="display: inline-block; white-space: nowrap;"><span class="edgeLabel"></span></div></foreignObject></g></g><g class="edgeLabel"><g class="label" transform="translate(0, 0)"><foreignObject width="0" height="0"><div xmlns="http://www.w3.org/1999/xhtml" style="display: inline-block; white-space: nowrap;"><span class="edgeLabel"></span></div></foreignObject></g></g><g class="edgeLabel"><g class="label" transform="translate(0, 0)"><foreignObject width="0" height="0"><div xmlns="http://www.w3.org/1999/xhtml" style="display: inline-block; white-space: nowrap;"><span class="edgeLabel"></span></div></foreignObject></g></g><g class="edgeLabel"><g class="label" transform="translate(0, 0)"><foreignObject width="0" height="0"><div xmlns="http://www.w3.org/1999/xhtml" style="display: inline-block; white-space: nowrap;"><span class="edgeLabel"></span></div></foreignObject></g></g><g class="edgeLabel"><g class="label" transform="translate(0, 0)"><foreignObject width="0" height="0"><div xmlns="http://www.w3.org/1999/xhtml" style="display: inline-block; white-space: nowrap;"><span class="edgeLabel"></span></div></foreignObject></g></g><g class="edgeLabel"><g class="label" transform="translate(0, 0)"><foreignObject width="0" height="0"><div xmlns="http://www.w3.org/1999/xhtml" style="display: inline-block; white-space: nowrap;"><span class="edgeLabel"></span></div></foreignObject></g></g><g class="edgeLabel"><g class="label" transform="translate(0, 0)"><foreignObject width="0" height="0"><div xmlns="http://www.w3.org/1999/xhtml" style="display: inline-block; white-space: nowrap;"><span class="edgeLabel"></span></div></foreignObject></g></g><g class="edgeLabel"><g class="label" transform="translate(0, 0)"><foreignObject width="0" height="0"><div xmlns="http://www.w3.org/1999/xhtml" style="display: inline-block; white-space: nowrap;"><span class="edgeLabel"></span></div></foreignObject></g></g><g class="edgeLabel" transform="translate(1321, 129.5)"><g class="label" transform="translate(-11, -11)"><foreignObject width="22" height="22"><div xmlns="http://www.w3.org/1999/xhtml" style="display: inline-block; white-space: nowrap;"><span class="edgeLabel">Yes</span></div></foreignObject></g></g><g class="edgeLabel" transform="translate(1321, 255.5)"><g class="label" transform="translate(-9.5, -11)"><foreignObject width="19" height="22"><div xmlns="http://www.w3.org/1999/xhtml" style="display: inline-block; white-space: nowrap;"><span class="edgeLabel">No</span></div></foreignObject></g></g><g class="edgeLabel" transform="translate(1508, 212)"><g class="label" transform="translate(-11, -11)"><foreignObject width="22" height="22"><div xmlns="http://www.w3.org/1999/xhtml" style="display: inline-block; white-space: nowrap;"><span class="edgeLabel">Yes</span></div></foreignObject></g></g><g class="edgeLabel" transform="translate(1508, 299)"><g class="label" transform="translate(-9.5, -11)"><foreignObject width="19" height="22"><div xmlns="http://www.w3.org/1999/xhtml" style="display: inline-block; white-space: nowrap;"><span class="edgeLabel">No</span></div></foreignObject></g></g></g><g class="nodes"><g class="node default default flowchart-label" id="flowchart-A-0" data-node="true" data-id="A" transform="translate(42.5, 192.5)"><rect class="basic label-container" style="" rx="0" ry="0" x="-42.5" y="-18.5" width="85" height="37"/><g class="label" style="" transform="translate(-35, -11)"><rect/><foreignObject width="70" height="22"><div xmlns="http://www.w3.org/1999/xhtml" style="display: inline-block; white-space: nowrap;"><span class="nodeLabel">Input Text</span></div></foreignObject></g></g><g class="node default default flowchart-label" id="flowchart-B-1" data-node="true" data-id="B" transform="translate(177, 192.5)"><rect class="basic label-container" style="" rx="0" ry="0" x="-42" y="-18.5" width="84" height="37"/><g class="label" style="" transform="translate(-34.5, -11)"><rect/><foreignObject width="69" height="22"><div xmlns="http://www.w3.org/1999/xhtml" style="display: inline-block; white-space: nowrap;"><span class="nodeLabel">Tokenizer</span></div></foreignObject></g></g><g class="node default default flowchart-label" id="flowchart-C-3" data-node="true" data-id="C" transform="translate(374.5, 192.5)"><rect class="basic label-container" style="" rx="0" ry="0" x="-105.5" y="-18.5" width="211" height="37"/><g class="label" style="" transform="translate(-98, -11)"><rect/><foreignObject width="196" height="22"><div xmlns="http://www.w3.org/1999/xhtml" style="display: inline-block; white-space: nowrap;"><span class="nodeLabel">Lexicon Lookup 7500 words</span></div></foreignObject></g></g><g class="node default default flowchart-label" id="flowchart-D-5" data-node="true" data-id="D" transform="translate(572, 192.5)"><rect class="basic label-container" style="" rx="0" ry="0" x="-42" y="-18.5" width="84" height="37"/><g class="label" style="" transform="translate(-34.5, -11)"><rect/><foreignObject width="69" height="22"><div xmlns="http://www.w3.org/1999/xhtml" style="display: inline-block; white-space: nowrap;"><span class="nodeLabel">Heuristics</span></div></foreignObject></g></g><g class="node default default flowchart-label" id="flowchart-E-7" data-node="true" data-id="E" transform="translate(772.5, 18.5)"><rect class="basic label-container" style="" rx="0" ry="0" x="-76" y="-18.5" width="152" height="37"/><g class="label" style="" transform="translate(-68.5, -11)"><rect/><foreignObject width="137" height="22"><div xmlns="http://www.w3.org/1999/xhtml" style="display: inline-block; white-space: nowrap;"><span class="nodeLabel">Negation: not good</span></div></foreignObject></g></g><g class="node default default flowchart-label" id="flowchart-F-9" data-node="true" data-id="F" transform="translate(772.5, 105.5)"><rect class="basic label-container" style="" rx="0" ry="0" x="-108.5" y="-18.5" width="217" height="37"/><g class="label" style="" transform="translate(-101, -11)"><rect/><foreignObject width="202" height="22"><div xmlns="http://www.w3.org/1999/xhtml" style="display: inline-block; white-space: nowrap;"><span class="nodeLabel">Intensifiers: very, extremely</span></div></foreignObject></g></g><g class="node default default flowchart-label" id="flowchart-G-11" data-node="true" data-id="G" transform="translate(772.5, 192.5)"><rect class="basic label-container" style="" rx="0" ry="0" x="-62" y="-18.5" width="124" height="37"/><g class="label" style="" transform="translate(-54.5, -11)"><rect/><foreignObject width="109" height="22"><div xmlns="http://www.w3.org/1999/xhtml" style="display: inline-block; white-space: nowrap;"><span class="nodeLabel">ALL CAPS boost</span></div></foreignObject></g></g><g class="node default default flowchart-label" id="flowchart-H-13" data-node="true" data-id="H" transform="translate(772.5, 279.5)"><rect class="basic label-container" style="" rx="0" ry="0" x="-71" y="-18.5" width="142" height="37"/><g class="label" style="" transform="translate(-63.5, -11)"><rect/><foreignObject width="127" height="22"><div xmlns="http://www.w3.org/1999/xhtml" style="display: inline-block; white-space: nowrap;"><span class="nodeLabel">Punctuation boost</span></div></foreignObject></g></g><g class="node default default flowchart-label" id="flowchart-I-15" data-node="true" data-id="I" transform="translate(772.5, 366.5)"><rect class="basic label-container" style="" rx="0" ry="0" x="-37.5" y="-18.5" width="75" height="37"/><g class="label" style="" transform="translate(-30, -11)"><rect/><foreignObject width="60" height="22"><div xmlns="http://www.w3.org/1999/xhtml" style="display: inline-block; white-space: nowrap;"><span class="nodeLabel">But shift</span></div></foreignObject></g></g><g class="node default default flowchart-label" id="flowchart-J-17" data-node="true" data-id="J" transform="translate(1028.5, 192.5)"><rect class="basic label-container" style="" rx="0" ry="0" x="-97.5" y="-18.5" width="195" height="37"/><g class="label" style="" transform="translate(-90, -11)"><rect/><foreignObject width="180" height="22"><div xmlns="http://www.w3.org/1999/xhtml" style="display: inline-block; white-space: nowrap;"><span class="nodeLabel">Compound Score -1 to +1</span></div></foreignObject></g></g><g class="node default default flowchart-label" id="flowchart-K-27" data-node="true" data-id="K" transform="translate(1230.5, 192.5)"><polygon points="54.5,0 109,-54.5 54.5,-109 0,-54.5" class="label-container" transform="translate(-54.5,54.5)" style=""/><g class="label" style="" transform="translate(-28.5, -11)"><rect/><foreignObject width="57" height="22"><div xmlns="http://www.w3.org/1999/xhtml" style="display: inline-block; white-space: nowrap;"><span class="nodeLabel">&gt;= 0.05?</span></div></foreignObject></g></g><g class="node default default flowchart-label" id="flowchart-L-29" data-node="true" data-id="L" transform="translate(1414.5, 129.5)"><rect class="basic label-container" style="" rx="0" ry="0" x="-36" y="-18.5" width="72" height="37"/><g class="label" style="" transform="translate(-28.5, -11)"><rect/><foreignObject width="57" height="22"><div xmlns="http://www.w3.org/1999/xhtml" style="display: inline-block; white-space: nowrap;"><span class="nodeLabel">Positive</span></div></foreignObject></g></g><g class="node default default flowchart-label" id="flowchart-M-31" data-node="true" data-id="M" transform="translate(1414.5, 255.5)"><polygon points="57.5,0 115,-57.5 57.5,-115 0,-57.5" class="label-container" transform="translate(-57.5,57.5)" style=""/><g class="label" style="" transform="translate(-31.5, -11)"><rect/><foreignObject width="63" height="22"><div xmlns="http://www.w3.org/1999/xhtml" style="display: inline-block; white-space: nowrap;"><span class="nodeLabel">&lt;= -0.05?</span></div></foreignObject></g></g><g class="node default default flowchart-label" id="flowchart-N-33" data-node="true" data-id="N" transform="translate(1583.5, 212)"><rect class="basic label-container" style="" rx="0" ry="0" x="-39.5" y="-18.5" width="79" height="37"/><g class="label" style="" transform="translate(-32, -11)"><rect/><foreignObject width="64" height="22"><div xmlns="http://www.w3.org/1999/xhtml" style="display: inline-block; white-space: nowrap;"><span class="nodeLabel">Negative</span></div></foreignObject></g></g><g class="node default default flowchart-label" id="flowchart-O-35" data-node="true" data-id="O" transform="translate(1583.5, 299)"><rect class="basic label-container" style="" rx="0" ry="0" x="-33" y="-18.5" width="66" height="37"/><g class="label" style="" transform="translate(-25.5, -11)"><rect/><foreignObject width="51" height="22"><div xmlns="http://www.w3.org/1999/xhtml" style="display: inline-block; white-space: nowrap;"><span class="nodeLabel">Neutral</span></div></foreignObject></g></g></g></g></g></svg>