<svg xmlns="http://www.w3.org/2000/svg" viewBox="3 5 27 22">
  <defs>
    <linearGradient id="bg" x1="0" y1="0" x2="1" y2="1">
      <stop offset="0" stop-color="#3b82f6"/>
      <stop offset="1" stop-color="#1d4ed8"/>
    </linearGradient>
  </defs>
  <rect width="32" height="32" rx="7" fill="url(#bg)"/>
  <path d="M10 7C8.5 7 7.5 8 7.5 10v3c0 1.5-1 2.5-2.5 3 1.5.5 2.5 1.5 2.5 3v3c0 2 1 3 2.5 3" fill="none" stroke="#fff" stroke-width="1.6" stroke-linecap="round" stroke-linejoin="round"/>
  <path d="M22 7c1.5 0 2.5 1 2.5 3v3c0 1.5 1 2.5 2.5 3-1.5.5-2.5 1.5-2.5 3v3c0 2-1 3-2.5 3" fill="none" stroke="#fff" stroke-width="1.6" stroke-linecap="round" stroke-linejoin="round"/>
  <rect x="12" y="11" width="8" height="2" rx="1" fill="#fff" opacity="0.5"/>
  <rect x="11" y="15" width="10" height="2" rx="1" fill="#fff" opacity="0.75"/>
  <rect x="10" y="19" width="12" height="2" rx="1" fill="#fff"/>
</svg>
