<svg xmlns="http://www.w3.org/2000/svg" viewBox="0 0 32 32">
  <defs>
    <linearGradient id="bg" x1="0" y1="0" x2="1" y2="1">
      <stop offset="0" stop-color="#3b82f6"/>
      <stop offset="1" stop-color="#1d4ed8"/>
    </linearGradient>
  </defs>
  <rect width="32" height="32" rx="7" fill="url(#bg)"/>
  <path d="M11 6.5C9 6.5 8 7.8 8 9.5v1.2c0 1-.5 1.8-1.5 2.2 1 .4 1.5 1.2 1.5 2.2v1.2c0 1.7 1 3 3 3" fill="none" stroke="#fff" stroke-width="1.8" stroke-linecap="round" stroke-linejoin="round" opacity="0.95"/>
  <path d="M21 6.5c2 0 3 1.3 3 3v1.2c0 1 .5 1.8 1.5 2.2-1 .4-1.5 1.2-1.5 2.2v1.2c0 1.7-1 3-3 3" fill="none" stroke="#fff" stroke-width="1.8" stroke-linecap="round" stroke-linejoin="round" opacity="0.95"/>
  <rect x="12" y="14" width="8" height="2.5" rx="1.25" fill="#fff" opacity="0.55"/>
  <rect x="11" y="18.5" width="10" height="2.5" rx="1.25" fill="#fff" opacity="0.75"/>
  <rect x="10" y="23" width="12" height="2.5" rx="1.25" fill="#fff"/>
</svg>
